<svg width="24" height="25" viewBox="0 0 24 25" fill="none" xmlns="http://www.w3.org/2000/svg">
<g clip-path="url(#clip0_7977_13838)">
<path d="M20.9769 10.7032C20.4929 10.2232 19.7049 10.1112 18.7529 10.3992C17.9249 10.6432 17.0769 11.1592 16.4289 11.8112C15.7769 12.4592 15.3929 13.1792 15.3129 13.8912C15.2609 14.3632 15.3489 14.8152 15.5609 15.2112C13.7889 15.4752 12.4289 17.0072 12.4289 18.8512C12.4289 20.4432 11.1329 21.7392 9.54087 21.7392C9.32087 21.7392 9.14087 21.9152 9.14087 22.1392C9.14087 22.3592 9.32087 22.5392 9.54087 22.5392C11.5769 22.5392 13.2289 20.8832 13.2289 18.8512C13.2289 17.2632 14.5209 15.9672 16.1129 15.9672C16.1489 15.9672 16.1809 15.9632 16.2129 15.9552C16.5809 16.2232 17.0329 16.3872 17.5369 16.3872C18.2489 16.3872 19.0649 16.0592 19.8689 15.2512C20.5209 14.6032 21.0369 13.7552 21.2849 12.9312C21.5689 11.9792 21.4609 11.1872 20.9769 10.7032Z" fill="#D3B474"/>
<path d="M9.56482 9.21102C9.88481 9.38302 10.2408 9.47504 10.6168 9.47504C10.7048 9.47504 10.7968 9.47103 10.8848 9.45902C11.5968 9.38302 12.3168 8.99903 12.9648 8.34703C13.6168 7.69503 14.1328 6.85104 14.3768 6.02303C14.6608 5.07103 14.5528 4.28302 14.0688 3.79903C13.5888 3.31503 12.7968 3.20702 11.8448 3.49103C11.0208 3.73902 10.1728 4.25502 9.52083 4.90702C8.14883 6.27902 8.16882 7.67504 8.82483 8.56302C8.81282 8.59503 8.80881 8.62704 8.80881 8.66302C8.80881 10.251 7.51282 11.547 5.92483 11.547C3.89282 11.547 2.23682 13.199 2.23682 15.231C2.23682 15.455 2.41682 15.631 2.63682 15.631C2.85681 15.631 3.03682 15.455 3.03682 15.231C3.03682 13.643 4.33281 12.347 5.92483 12.347C7.76882 12.347 9.30083 10.983 9.56482 9.21102Z" fill="#D3B474"/>
<path d="M12.4289 12.1034C12.4289 13.6954 11.1329 14.9914 9.54087 14.9914C9.32087 14.9914 9.14087 15.1674 9.14087 15.3914C9.14087 15.6114 9.32087 15.7914 9.54087 15.7914C11.5769 15.7914 13.2289 14.1354 13.2289 12.1034C13.2289 10.5154 14.5209 9.21937 16.1129 9.21937C16.1489 9.21937 16.1809 9.21537 16.2129 9.20736C16.5809 9.47538 17.0329 9.63536 17.5369 9.63536C17.8929 9.63536 18.2769 9.55536 18.6689 9.37137C19.0609 9.19137 19.4689 8.90736 19.8689 8.50336C21.2089 7.16737 21.9889 4.97137 20.9769 3.95536C20.4929 3.47538 19.7049 3.36737 18.7529 3.65138C17.9249 3.89537 17.0769 4.41136 16.4289 5.06337C15.1809 6.31136 15.0809 7.57538 15.5609 8.46337C13.7889 8.72738 12.4289 10.2594 12.4289 12.1034Z" fill="#D3B474"/>
</g>
<defs>
<clipPath id="clip0_7977_13838">
<rect width="24" height="24" fill="white" transform="translate(0 0.775391)"/>
</clipPath>
</defs>
</svg>
