<svg width="24" height="25" viewBox="0 0 24 25" fill="none" xmlns="http://www.w3.org/2000/svg">
<g clip-path="url(#clip0_7977_13860)">
<path d="M22.2111 7.04426C21.3492 5.31564 19.9835 3.86685 18.2615 2.85463C16.5948 1.87485 14.6285 1.33984 12.7047 1.33984C12.6461 1.33984 12.5873 1.34037 12.5287 1.34133C10.4463 1.3768 8.5252 2.01616 6.97292 3.19029C4.95208 4.71895 3.52724 6.40284 2.73808 8.1952C2.07001 9.71272 1.864 11.2727 2.12584 12.8318C2.48968 14.9976 3.72822 16.7708 4.84988 17.4633L0.56958 21.7437C0.6771 22.0441 0.820236 22.3276 0.994044 22.5889L10.1617 13.4213L13.8428 12.4703L9.80612 16.507L2.42752 23.8856C2.7158 24.0381 3.02531 24.1555 3.35065 24.2324L7.55454 20.0285C8.54891 21.6638 11.0873 22.7795 13.7887 22.7793C14.1303 22.7793 14.475 22.7614 14.819 22.7246C16.8377 22.5079 18.6454 21.6774 20.0468 20.3224C21.7064 18.7177 22.7525 16.4494 23.1558 13.5803C23.4935 11.178 23.1757 8.97895 22.2111 7.04426ZM12.6207 11.3425C12.6322 12.2502 11.1589 12.2828 11.2381 11.1841C11.2381 11.1841 11.3524 9.03746 12.5974 8.235C14.0056 7.32717 15.7851 7.6468 16.1587 9.00314C16.4729 10.1437 15.9725 10.714 15.1112 10.97C14.1856 11.2451 12.609 10.4347 12.6207 11.3425ZM22.0444 13.4241C21.6767 16.0394 20.7421 18.0889 19.2666 19.5155C17.7253 21.0058 15.9321 21.4763 14.6993 21.6085C13.2719 21.7615 11.8039 21.5562 10.566 21.0301C9.48328 20.57 8.6966 19.9075 8.38427 19.1987L9.80113 17.7818C11.8509 19.7812 14.8374 19.7621 17.6272 16.9723C20.2902 14.3093 20.2902 9.99184 17.6273 7.3289C14.9643 4.66596 10.6468 4.66596 7.98385 7.3289C5.1578 10.155 5.15272 13.1196 7.16142 15.1517L5.68336 16.6298C4.99547 16.3894 3.60688 14.8731 3.23281 12.6458C3.00779 11.3063 3.18707 9.96108 3.76547 8.64736C4.47654 7.03216 5.78363 5.49727 7.65016 4.08535C9.01139 3.0557 10.705 2.49487 12.5479 2.46348C14.3238 2.43314 16.1509 2.91573 17.6928 3.82212C19.2269 4.72399 20.442 6.0113 21.2067 7.545C22.068 9.2728 22.3498 11.2507 22.0444 13.4241Z" fill="#383838"/>
</g>
<defs>
<clipPath id="clip0_7977_13860">
<rect width="24" height="24" fill="white" transform="translate(0 0.775391)"/>
</clipPath>
</defs>
</svg>
