<svg width="24" height="25" viewBox="0 0 24 25" fill="none" xmlns="http://www.w3.org/2000/svg">
<g clip-path="url(#clip0_8979_43291)">
<path d="M23.7803 6.44392L17.7803 0.443918C17.4872 0.150855 17.0127 0.150855 16.7198 0.443918C16.4269 0.73698 16.4267 1.21154 16.7198 1.50442L17.6895 2.47417L15 5.16367L12.5303 2.69392C12.2372 2.40086 11.7627 2.40086 11.4698 2.69392C11.1769 2.98698 11.1767 3.46154 11.4698 3.75442L12.4395 4.72417L4.50005 12.6637C3.91486 13.2485 3.91486 14.1999 4.50005 14.7849L4.93955 15.2242L3.53048 16.633C3.10561 17.0583 2.87123 17.6232 2.87123 18.2242C2.87123 18.7814 3.0803 19.303 3.44855 19.7154L0.219797 22.9439C-0.0732656 23.237 -0.0732656 23.7115 0.219797 24.0044C0.366234 24.1509 0.558234 24.2242 0.750047 24.2242C0.941859 24.2242 1.13386 24.1509 1.2803 24.0044L4.50905 20.7757C4.93411 21.1539 5.46436 21.3517 6.00005 21.3517C6.57567 21.3517 7.15223 21.1323 7.5908 20.6939L9.00005 19.2847L9.43955 19.7242C9.73186 20.0169 10.1162 20.1629 10.5 20.1629C10.8839 20.1629 11.2684 20.0169 11.5605 19.7242L19.5 11.7847L20.4698 12.7544C20.6162 12.9009 20.8082 12.9742 21 12.9742C21.1919 12.9742 21.3839 12.9009 21.5303 12.7544C21.8234 12.4614 21.8234 11.9868 21.5303 11.6939L19.0605 9.22417L21.75 6.53467L22.7198 7.50442C22.8662 7.65086 23.0582 7.72417 23.25 7.72417C23.4419 7.72417 23.6339 7.65086 23.7803 7.50442C24.0734 7.21154 24.0734 6.73679 23.7803 6.44392ZM6.5303 19.633C6.23723 19.9261 5.76267 19.9257 5.4698 19.6334L4.5908 18.7542C4.44867 18.6129 4.37105 18.4246 4.37105 18.2244C4.37105 18.0241 4.44867 17.8359 4.5908 17.6941L6.00005 16.2847L7.93955 18.2242L6.5303 19.633ZM16.5 12.6637L14.0303 10.1939C13.7372 9.90086 13.2627 9.90086 12.9698 10.1939C12.6769 10.487 12.6767 10.9615 12.9698 11.2544L15.4395 13.7242L13.5 15.6637L11.0303 13.1939C10.7372 12.9009 10.2627 12.9009 9.9698 13.1939C9.67692 13.487 9.67673 13.9615 9.9698 14.2544L12.4395 16.7242L10.5 18.6637L5.56055 13.7242L13.5 5.78467L18.4395 10.7242L16.5 12.6637ZM18 8.16367L16.0605 6.22417L18.75 3.53467L20.6895 5.47417L18 8.16367Z" fill="#D3B474"/>
</g>
<defs>
<clipPath id="clip0_8979_43291">
<rect width="24" height="24" fill="white" transform="translate(0 0.224121)"/>
</clipPath>
</defs>
</svg>
