<svg width="10" height="12" viewBox="0 0 10 12" fill="none" xmlns="http://www.w3.org/2000/svg">
<path d="M8.58327 1.77628C7.32166 0.514676 5.2672 0.514676 4.00693 1.77628L0.511396 5.26914C0.488629 5.29191 0.476575 5.32271 0.476575 5.35485C0.476575 5.387 0.488629 5.4178 0.511396 5.44057L1.00559 5.93477C1.02818 5.95726 1.05876 5.96988 1.09064 5.96988C1.12251 5.96988 1.15309 5.95726 1.17568 5.93477L4.67122 2.44191C5.10515 2.00798 5.68238 1.76959 6.29577 1.76959C6.90916 1.76959 7.4864 2.00798 7.91899 2.44191C8.35291 2.87584 8.59131 3.45307 8.59131 4.06512C8.59131 4.67852 8.35291 5.25441 7.91899 5.68834L4.35649 9.2495L3.77925 9.82673C3.23952 10.3665 2.36229 10.3665 1.82256 9.82673C1.5614 9.56557 1.41809 9.21869 1.41809 8.84905C1.41809 8.47941 1.5614 8.13253 1.82256 7.87137L5.35693 4.33834C5.44666 4.24994 5.56452 4.20039 5.69041 4.20039H5.69175C5.81765 4.20039 5.93416 4.24994 6.02256 4.33834C6.11229 4.42807 6.1605 4.54593 6.1605 4.67182C6.1605 4.79637 6.11095 4.91423 6.02256 5.00262L3.13372 7.88878C3.11095 7.91155 3.0989 7.94236 3.0989 7.9745C3.0989 8.00664 3.11095 8.03744 3.13372 8.06021L3.62791 8.55441C3.6505 8.5769 3.68108 8.58953 3.71296 8.58953C3.74484 8.58953 3.77541 8.5769 3.798 8.55441L6.6855 5.66691C6.95202 5.40039 7.098 5.04682 7.098 4.67048C7.098 4.29414 6.95068 3.93923 6.6855 3.67405C6.13506 3.1236 5.24041 3.12494 4.68997 3.67405L4.34711 4.01825L1.15693 7.20709C0.940411 7.42234 0.768778 7.67843 0.651988 7.96052C0.535198 8.24261 0.475575 8.54508 0.476575 8.85039C0.476575 9.47048 0.718986 10.0531 1.15693 10.491C1.61095 10.9437 2.20559 11.17 2.80024 11.17C3.39488 11.17 3.98952 10.9437 4.4422 10.491L8.58327 6.35262C9.19265 5.74191 9.53015 4.92896 9.53015 4.06512C9.53149 3.19994 9.19399 2.387 8.58327 1.77628Z" fill="black" fill-opacity="0.45"/>
</svg>
